 <svg version="1.0" xmlns="http://www.w3.org/2000/svg" width="700.000000pt" height="147.000000pt" viewBox="0 0 700.000000 147.000000" preserveAspectRatio="xMidYMid meet">
<metadata>
Created by potrace 1.12, written by Peter Selinger 2001-2015
</metadata>
<g transform="translate(0.000000,147.000000) scale(0.100000,-0.100000)" fill="#000000" stroke="none">
<path d="M290 1281 c0 -4 20 -51 45 -104 39 -84 52 -101 99 -136 94 -69 149
-101 177 -101 27 0 57 -25 45 -37 -3 -4 -30 1 -59 10 -28 9 -77 19 -107 22
-86 9 -122 -17 -182 -133 -28 -54 -48 -106 -48 -125 0 -17 10 -99 22 -182 20
-136 24 -152 49 -176 27 -25 151 -69 195 -69 59 0 107 39 183 149 24 34 50
130 51 189 0 17 5 32 11 32 17 0 6 -148 -14 -190 -10 -19 -39 -64 -67 -100
-27 -36 -49 -69 -50 -74 0 -4 44 -6 98 -4 85 4 105 9 167 39 86 43 123 89 160
199 55 165 41 276 -43 351 -67 58 -118 86 -191 103 l-65 15 -38 -35 c-21 -19
-43 -32 -48 -29 -5 3 6 20 25 37 28 24 35 38 35 65 0 35 0 35 -25 19 -13 -9
-30 -16 -37 -16 -7 0 -33 38 -58 83 l-45 82 -125 63 c-118 59 -160 73 -160 53z
m129 -85 c18 -14 39 -22 46 -20 22 9 75 -25 86 -54 5 -15 16 -31 23 -37 18
-14 66 -102 59 -109 -14 -14 -41 -3 -114 45 -87 57 -114 83 -104 99 4 6 -1 18
-11 25 -18 14 -18 14 3 15 12 0 23 -6 25 -14 2 -11 5 -12 15 -1 9 10 3 17 -28
31 -21 11 -41 25 -43 32 -8 19 7 15 43 -12z m261 -236 c0 -5 -4 -10 -10 -10
-5 0 -10 5 -10 10 0 6 5 10 10 10 6 0 10 -4 10 -10z m112 -98 c-4 -43 13 -62
57 -62 29 0 26 -12 -9 -38 -19 -15 -30 -31 -30 -47 0 -16 11 -32 30 -47 17
-12 30 -29 30 -38 0 -28 36 -53 66 -47 20 3 37 -2 61 -22 18 -14 33 -31 33
-38 0 -25 -51 -123 -61 -117 -7 4 -5 12 5 23 33 37 6 91 -46 91 -19 0 -31 6
-34 18 -11 35 -22 47 -43 47 -13 0 -33 14 -47 33 -46 58 -67 41 -90 -74 -17
-86 -35 -122 -91 -189 -47 -57 -76 -67 -145 -51 -78 19 -105 32 -122 58 -8 13
-24 87 -36 166 -17 114 -19 149 -10 176 19 57 70 144 97 166 31 24 98 27 169
5 75 -23 133 -19 169 10 40 32 51 27 47 -23z m63 -12 c0 -22 -29 -18 -33 3 -3
14 1 18 15 15 10 -2 18 -10 18 -18z m76 10 c28 -16 23 -32 -8 -28 -17 2 -29
10 -31 21 -4 19 10 22 39 7z m75 -61 c18 -20 18 -21 0 -35 -25 -18 -36 -10
-36 27 0 34 10 37 36 8z m-70 -10 c10 -17 -13 -36 -27 -22 -12 12 -4 33 11 33
5 0 12 -5 16 -11z m-48 -72 c4 -20 -25 -34 -40 -19 -15 15 -1 44 19 40 10 -2
19 -11 21 -21z m69 -3 c8 -21 -13 -42 -28 -27 -13 13 -5 43 11 43 6 0 13 -7
17 -16z m70 0 c8 -21 -13 -42 -28 -27 -13 13 -5 43 11 43 6 0 13 -7 17 -16z
m-79 -81 c5 -17 -26 -29 -40 -15 -6 6 -7 15 -3 22 9 14 37 9 43 -7z m98 -24
c10 -17 -13 -36 -27 -22 -12 12 -4 33 11 33 5 0 12 -5 16 -11z m-186 -65 c0
-8 -5 -12 -10 -9 -6 4 -8 11 -5 16 9 14 15 11 15 -7z m13 -84 c15 -58 5 -156
-11 -111 -3 8 -18 27 -34 42 -28 25 -29 28 -18 68 9 35 15 42 33 39 15 -2 24
-13 30 -38z m82 11 c0 -8 -8 -19 -17 -25 -22 -13 -44 5 -34 29 7 20 51 16 51
-4z m-17 -102 c-2 -6 -8 -10 -13 -10 -5 0 -11 4 -13 10 -2 6 4 11 13 11 9 0
15 -5 13 -11z m-121 -15 c8 -21 -13 -42 -28 -27 -13 13 -5 43 11 43 6 0 13 -7
17 -16z m-67 -50 c0 -8 -5 -12 -10 -9 -6 4 -8 11 -5 16 9 14 15 11 15 -7z"></path>
<path d="M1863 878 c2 -7 31 -77 63 -155 57 -141 58 -143 89 -143 32 0 32 2
90 143 31 78 60 148 62 155 4 8 -7 12 -35 12 -43 0 -35 13 -93 -144 -25 -68
-24 -69 -70 57 l-31 87 -40 0 c-28 0 -39 -4 -35 -12z"></path>
<path d="M2354 871 c-95 -58 -110 -173 -32 -248 67 -63 155 -64 217 -2 102
101 32 269 -111 269 -24 0 -56 -8 -74 -19z m132 -75 c58 -49 20 -146 -57 -146
-43 0 -79 39 -79 85 0 74 80 110 136 61z"></path>
<path d="M2692 858 c3 -31 6 -33 46 -36 l42 -3 0 -120 0 -119 35 0 35 0 0 119
0 120 43 3 c39 3 42 5 45 36 l3 32 -126 0 -126 0 3 -32z"></path>
<path d="M3050 735 l0 -155 35 0 35 0 0 155 0 155 -35 0 -35 0 0 -155z"></path>
<path d="M3260 736 l0 -156 34 0 c33 0 35 2 40 43 3 23 7 59 8 81 l3 39 43
-82 c43 -80 44 -81 83 -81 l40 0 -3 153 -3 152 -35 0 -35 0 -3 -85 -3 -85 -47
85 c-45 81 -49 85 -85 88 l-37 3 0 -155z"></path>
<path d="M3720 871 c-71 -37 -100 -139 -61 -211 23 -44 57 -69 108 -80 53 -12
98 1 140 42 35 34 61 104 45 120 -5 5 -40 8 -78 6 -66 -3 -69 -4 -69 -28 0
-21 5 -26 33 -28 48 -5 37 -33 -19 -47 -57 -14 -122 56 -103 111 22 62 100 87
139 44 19 -21 79 -28 89 -11 8 13 -40 69 -75 86 -39 21 -107 19 -149 -4z"></path>
<path d="M1603 779 c-100 -30 -96 -171 5 -198 74 -21 131 12 146 85 17 81 -62
140 -151 113z m61 -45 c28 -11 17 -24 -20 -24 -31 0 -35 2 -24 15 14 17 21 18
44 9z m46 -71 c-14 -3 -29 -11 -33 -19 -10 -17 -39 -18 -55 -2 -22 22 -12 28
51 27 34 -1 51 -4 37 -6z"></path>
<path d="M1608 373 c-3 -35 -5 -38 -30 -35 -37 4 -66 -38 -50 -73 10 -21 18
-25 57 -25 l45 0 0 79 c0 82 -16 121 -22 54z m-8 -68 c16 -19 6 -45 -18 -45
-29 0 -48 26 -32 45 16 19 34 19 50 0z"></path>
<path d="M2268 404 c-5 -4 -8 -43 -8 -86 l0 -78 40 0 c31 0 43 5 56 25 15 23
15 27 0 50 -11 17 -26 25 -46 25 -26 0 -29 4 -32 36 -2 20 -6 32 -10 28z m72
-100 c11 -12 10 -18 -6 -35 -17 -17 -22 -17 -38 -6 -13 10 -16 20 -12 35 8 26
38 29 56 6z"></path>
<path d="M2959 403 c-1 -4 -2 -21 -3 -38 -1 -26 -4 -30 -27 -27 -34 4 -63 -29
-55 -62 8 -32 35 -47 70 -38 26 7 27 10 30 85 2 43 -1 80 -6 83 -4 3 -9 2 -9
-3z m-9 -99 c11 -13 10 -19 -8 -36 -17 -18 -23 -19 -36 -8 -16 13 -21 42 -9
53 11 12 40 7 53 -9z"></path>
<path d="M3320 325 c0 -50 4 -85 10 -85 6 0 10 35 10 85 0 50 -4 85 -10 85 -6
0 -10 -35 -10 -85z"></path>
<path d="M5800 325 c0 -55 4 -84 10 -80 6 3 10 39 10 80 0 41 -4 77 -10 80 -6
4 -10 -25 -10 -80z"></path>
<path d="M6202 398 c-7 -7 -12 -19 -12 -28 0 -9 -5 -21 -12 -28 -9 -9 -9 -15
0 -24 7 -7 12 -27 12 -45 0 -18 5 -33 10 -33 6 0 10 15 10 33 0 18 5 38 11 44
8 8 7 17 -2 32 -11 16 -11 23 -1 33 14 14 16 28 4 28 -4 0 -13 -5 -20 -12z"></path>
<path d="M1950 366 c0 -8 -8 -20 -17 -26 -17 -9 -17 -11 0 -21 15 -9 17 -18
12 -45 -5 -28 -3 -34 11 -34 13 0 15 6 10 34 -5 27 -3 37 11 45 17 11 17 11 0
22 -9 5 -15 14 -12 19 3 5 1 11 -5 15 -5 3 -10 -1 -10 -9z"></path>
<path d="M2610 378 c-2 -5 -3 -13 -4 -18 0 -6 -8 -15 -16 -21 -13 -8 -13 -11
3 -20 14 -8 16 -18 11 -45 -5 -27 -3 -34 10 -34 12 0 14 7 9 32 -5 23 -2 34
12 45 17 12 17 14 3 26 -9 6 -18 19 -21 27 -3 8 -6 12 -7 8z"></path>
<path d="M3760 366 c0 -8 -8 -19 -17 -25 -17 -9 -17 -11 1 -24 15 -11 18 -21
13 -45 -5 -25 -3 -32 9 -32 12 0 14 7 9 34 -5 27 -3 36 12 45 17 10 17 12 0
22 -9 5 -15 14 -12 19 3 5 1 11 -5 15 -5 3 -10 -1 -10 -9z"></path>
<path d="M4984 364 c-4 -10 -12 -22 -18 -26 -7 -6 -6 -11 4 -18 9 -6 14 -21
12 -45 -2 -20 1 -35 7 -35 6 0 11 15 11 33 0 18 5 38 10 43 7 7 6 20 -4 39
-14 26 -16 27 -22 9z"></path>
<path d="M6065 354 c-12 -19 -14 -29 -6 -37 6 -6 11 -23 11 -38 0 -15 5 -31
10 -34 6 -4 10 8 10 27 0 19 5 39 10 44 7 7 6 19 -3 38 l-14 26 -18 -26z"></path>
<path d="M1707 333 c-11 -10 -8 -93 3 -93 6 0 10 23 10 50 0 51 -1 55 -13 43z"></path>
<path d="M1794 326 c-7 -19 12 -46 32 -46 8 0 14 -7 14 -15 0 -17 -16 -20 -25
-5 -8 13 -25 13 -25 0 0 -18 39 -31 60 -20 29 15 25 37 -10 55 -37 19 -39 29
-5 22 16 -3 24 0 22 7 -6 18 -56 20 -63 2z"></path>
<path d="M2057 333 c-11 -10 -8 -93 3 -93 6 0 10 13 10 29 0 16 7 36 15 45 8
8 15 17 15 20 0 8 -35 7 -43 -1z"></path>
<path d="M2170 290 c0 -32 4 -49 10 -45 6 3 10 24 10 45 0 21 -4 42 -10 45 -6
4 -10 -13 -10 -45z"></path>
<path d="M2438 334 c-11 -11 -10 -52 2 -75 8 -13 21 -19 45 -19 l35 0 0 51 c0
31 -4 48 -10 44 -5 -3 -10 -19 -10 -34 0 -35 -22 -57 -38 -39 -6 7 -12 28 -14
46 -2 19 -6 30 -10 26z"></path>
<path d="M2714 315 c-15 -23 -15 -27 0 -50 23 -35 73 -35 86 1 13 34 13 40 -6
58 -24 24 -61 20 -80 -9z m66 -5 c0 -5 -9 -10 -20 -10 -11 0 -20 5 -20 10 0 6
9 10 20 10 11 0 20 -4 20 -10z m0 -39 c0 -12 -21 -19 -37 -13 -22 8 -14 22 12
22 14 0 25 -4 25 -9z"></path>
<path d="M3167 322 c-34 -37 -15 -82 34 -82 30 0 42 12 47 48 6 48 -48 71 -81
34z m53 -12 c0 -5 -9 -10 -20 -10 -11 0 -20 5 -20 10 0 6 9 10 20 10 11 0 20
-4 20 -10z m10 -39 c0 -12 -21 -19 -37 -13 -22 8 -14 22 12 22 14 0 25 -4 25
-9z"></path>
<path d="M3426 324 c-19 -18 -21 -55 -4 -72 16 -16 65 -15 75 1 13 21 14 58 2
73 -15 19 -54 18 -73 -2z m54 -14 c0 -5 -9 -10 -20 -10 -11 0 -20 5 -20 10 0
6 9 10 20 10 11 0 20 -4 20 -10z m10 -39 c0 -12 -21 -19 -37 -13 -22 8 -14 22
12 22 14 0 25 -4 25 -9z"></path>
<path d="M3592 328 c-17 -17 -15 -63 2 -77 18 -15 68 -11 73 6 3 7 -8 11 -29
10 -27 -2 -34 2 -36 21 -4 27 18 38 47 22 12 -6 21 -7 21 -2 0 15 -24 32 -45
32 -12 0 -26 -5 -33 -12z"></path>
<path d="M3860 290 c0 -27 5 -50 10 -50 6 0 10 16 10 35 0 22 6 38 15 41 24 9
17 24 -10 24 -23 0 -25 -3 -25 -50z"></path>
<path d="M3985 320 c-28 -31 -10 -74 32 -78 25 -3 35 2 49 22 15 24 15 28 0
51 -20 31 -56 33 -81 5z m65 -15 c10 -12 10 -18 0 -30 -27 -32 -71 -8 -56 30
3 8 14 15 24 15 11 0 25 -7 32 -15z"></path>
<path d="M4147 333 c-11 -10 -8 -81 3 -88 6 -4 10 6 10 23 0 31 22 58 40 47 5
-3 10 -22 10 -41 0 -19 5 -34 10 -34 14 0 12 74 -2 88 -13 13 -60 16 -71 5z"></path>
<path d="M4307 333 c-11 -10 -8 -93 3 -93 6 0 10 23 10 50 0 51 -1 55 -13 43z"></path>
<path d="M4405 320 c-28 -31 -10 -74 31 -78 18 -2 36 3 43 12 11 13 8 14 -23
9 -42 -7 -60 18 -32 45 14 14 20 15 37 4 25 -16 37 -8 19 13 -18 21 -54 19
-75 -5z"></path>
<path d="M4657 333 c-5 -10 31 -93 41 -93 10 0 46 90 39 96 -3 3 -13 -9 -23
-28 l-17 -33 -14 33 c-13 33 -19 38 -26 25z"></path>
<path d="M4812 328 c-7 -7 -12 -24 -12 -38 0 -33 17 -50 50 -50 33 0 50 17 50
50 0 33 -17 50 -50 50 -14 0 -31 -5 -38 -12z m63 -38 c0 -18 -6 -26 -23 -28
-24 -4 -38 18 -28 44 3 9 15 14 28 12 17 -2 23 -10 23 -28z"></path>
<path d="M5097 333 c-11 -10 -8 -93 3 -93 6 0 10 23 10 50 0 51 -1 55 -13 43z"></path>
<path d="M5190 286 c0 -53 16 -54 22 -1 2 19 9 30 18 30 9 0 16 -11 18 -30 6
-54 23 -54 20 0 l-3 50 -37 0 -38 1 0 -50z"></path>
<path d="M5355 320 c-28 -31 -10 -74 33 -78 20 -2 32 -9 32 -18 0 -21 -29 -29
-51 -16 -28 18 -34 14 -14 -8 43 -48 85 -11 85 76 l0 59 -34 2 c-23 2 -39 -4
-51 -17z m63 -26 c4 -29 -23 -51 -43 -34 -16 13 -20 42 -8 54 14 14 48 1 51
-20z"></path>
<path d="M5624 331 c-9 -9 -3 -140 6 -146 6 -4 10 6 10 24 0 27 3 30 37 33 31
2 39 8 47 30 14 39 -14 69 -61 65 -19 -1 -36 -4 -39 -6z m76 -26 c17 -21 5
-45 -24 -45 -27 0 -42 26 -25 46 15 18 33 18 49 -1z"></path>
<path d="M5895 321 c-21 -24 -14 -66 13 -80 9 -5 32 -6 50 -4 32 5 33 6 30 51
-3 44 -4 45 -39 49 -26 2 -41 -2 -54 -16z m64 -15 c16 -20 3 -46 -24 -46 -13
0 -26 7 -29 16 -7 19 10 44 29 44 7 0 18 -6 24 -14z"></path>
<path d="M6304 315 c-15 -23 -15 -27 0 -50 18 -27 63 -34 84 -13 30 30 -1 88
-46 88 -12 0 -29 -11 -38 -25z m71 -25 c0 -30 -35 -40 -55 -15 -10 12 -10 18
0 30 20 25 55 15 55 -15z"></path>
<path d="M6470 290 c0 -27 5 -50 10 -50 6 0 10 16 10 35 0 22 6 38 15 41 24 9
17 24 -10 24 -23 0 -25 -3 -25 -50z"></path>
<path d="M6586 333 c-10 -10 -7 -93 4 -93 6 0 10 13 10 29 0 31 22 57 40 46 5
-3 10 -22 10 -41 0 -46 18 -44 22 4 2 25 8 37 18 37 10 0 16 -12 18 -37 2 -21
7 -38 13 -38 14 0 11 76 -3 87 -14 11 -122 16 -132 6z"></path>
</g>
</svg>